<svg width="22" height="25" viewBox="0 0 22 25" fill="none" xmlns="http://www.w3.org/2000/svg">
<rect width="22" height="25" fill="#1E1E1E"/>
<g id="home page" clip-path="url(#clip0_0_1)">
<rect width="1440" height="1024" transform="translate(-136 -692)" fill="white"/>
<g id="Primary BTN">
<rect x="-18" y="-14" width="278" height="56" rx="28" fill="#418FF4"/>
</g>
<g id="Google Play logo" filter="url(#filter0_ii_0_1)">
<path id="Vector" d="M0.436616 0.375933C0.162199 0.667515 -4.02899e-07 1.12004 -4.02899e-07 1.70604V22.6431C-4.02899e-07 23.2301 0.162199 23.6817 0.436616 23.9732L0.506399 24.0414L12.1894 12.3128V12.1746V12.0364L0.506399 0.306824L0.436616 0.375933Z" fill="url(#paint0_linear_0_1)"/>
<path id="Vector_2" d="M16.0829 16.2234L12.1892 12.3126V12.1744V12.0362L16.0839 8.12633L16.1716 8.1765L20.7857 10.8083C22.1031 11.56 22.1031 12.7897 20.7857 13.5424L16.1716 16.1742L16.0829 16.2234Z" fill="url(#paint1_linear_0_1)"/>
<g id="Vector_3" filter="url(#filter1_i_0_1)">
<path d="M16.1718 16.1732L12.1885 12.1743L0.436646 23.973C0.870433 24.435 1.58807 24.4918 2.39623 24.0317L16.1718 16.1732Z" fill="url(#paint2_linear_0_1)"/>
</g>
<path id="Vector_4" d="M16.1718 8.17573L2.39623 0.318161C1.58807 -0.14288 0.870433 -0.0851311 0.436646 0.376856L12.1894 12.1755L16.1718 8.17573Z" fill="url(#paint3_linear_0_1)"/>
</g>
</g>
<defs>
<filter id="filter0_ii_0_1" x="0" y="0" width="21.7737" height="24.3495" filterUnits="userSpaceOnUse" color-interpolation-filters="sRGB">
<feFlood flood-opacity="0" result="BackgroundImageFix"/>
<feBlend mode="normal" in="SourceGraphic" in2="BackgroundImageFix" result="shape"/>
<feColorMatrix in="SourceAlpha" type="matrix" values="0 0 0 0 0 0 0 0 0 0 0 0 0 0 0 0 0 0 127 0" result="hardAlpha"/>
<feOffset dy="-0.142004"/>
<feComposite in2="hardAlpha" operator="arithmetic" k2="-1" k3="1"/>
<feColorMatrix type="matrix" values="0 0 0 0 0 0 0 0 0 0 0 0 0 0 0 0 0 0 0.12 0"/>
<feBlend mode="normal" in2="shape" result="effect1_innerShadow_0_1"/>
<feColorMatrix in="SourceAlpha" type="matrix" values="0 0 0 0 0 0 0 0 0 0 0 0 0 0 0 0 0 0 127 0" result="hardAlpha"/>
<feOffset dy="0.142004"/>
<feComposite in2="hardAlpha" operator="arithmetic" k2="-1" k3="1"/>
<feColorMatrix type="matrix" values="0 0 0 0 1 0 0 0 0 1 0 0 0 0 1 0 0 0 0.25 0"/>
<feBlend mode="normal" in2="effect1_innerShadow_0_1" result="effect2_innerShadow_0_1"/>
</filter>
<filter id="filter1_i_0_1" x="0.436646" y="12.1743" width="15.7351" height="12.1751" filterUnits="userSpaceOnUse" color-interpolation-filters="sRGB">
<feFlood flood-opacity="0" result="BackgroundImageFix"/>
<feBlend mode="normal" in="SourceGraphic" in2="BackgroundImageFix" result="shape"/>
<feColorMatrix in="SourceAlpha" type="matrix" values="0 0 0 0 0 0 0 0 0 0 0 0 0 0 0 0 0 0 127 0" result="hardAlpha"/>
<feOffset dy="-0.142004"/>
<feComposite in2="hardAlpha" operator="arithmetic" k2="-1" k3="1"/>
<feColorMatrix type="matrix" values="0 0 0 0 0 0 0 0 0 0 0 0 0 0 0 0 0 0 0.08 0"/>
<feBlend mode="normal" in2="shape" result="effect1_innerShadow_0_1"/>
</filter>
<linearGradient id="paint0_linear_0_1" x1="11.1538" y1="1.48451" x2="-4.73353" y2="17.3101" gradientUnits="userSpaceOnUse">
<stop stop-color="#00A0FF"/>
<stop offset="0.0066" stop-color="#00A1FF"/>
<stop offset="0.2601" stop-color="#00BEFF"/>
<stop offset="0.5122" stop-color="#00D2FF"/>
<stop offset="0.7604" stop-color="#00DFFF"/>
<stop offset="1" stop-color="#00E3FF"/>
</linearGradient>
<linearGradient id="paint1_linear_0_1" x1="22.5006" y1="12.1744" x2="-0.316478" y2="12.1744" gradientUnits="userSpaceOnUse">
<stop stop-color="#FFE000"/>
<stop offset="0.4087" stop-color="#FFBD00"/>
<stop offset="0.7754" stop-color="#FFA500"/>
<stop offset="1" stop-color="#FF9C00"/>
</linearGradient>
<linearGradient id="paint2_linear_0_1" x1="14.0086" y1="14.346" x2="-7.53659" y2="35.8074" gradientUnits="userSpaceOnUse">
<stop stop-color="#FF3A44"/>
<stop offset="1" stop-color="#C31162"/>
</linearGradient>
<linearGradient id="paint3_linear_0_1" x1="-2.5231" y1="-6.5929" x2="7.09743" y2="2.99022" gradientUnits="userSpaceOnUse">
<stop stop-color="#32A071"/>
<stop offset="0.0685" stop-color="#2DA771"/>
<stop offset="0.4762" stop-color="#15CF74"/>
<stop offset="0.8009" stop-color="#06E775"/>
<stop offset="1" stop-color="#00F076"/>
</linearGradient>
<clipPath id="clip0_0_1">
<rect width="1440" height="1024" fill="white" transform="translate(-136 -692)"/>
</clipPath>
</defs>
</svg>
