<svg width="110" height="110" viewBox="0 0 110 110" fill="none" xmlns="http://www.w3.org/2000/svg">
<g id="Group 8">
<rect id="Rectangle 4447" width="110" height="110" rx="55" fill="#418FF4" fill-opacity="0.11"/>
<g id="dollar">
<path id="Vector" d="M41.5963 63.5286C41.5963 68.5274 45.4325 72.5574 50.1988 72.5574H59.925C64.0712 72.5574 67.4425 69.0311 67.4425 64.6911C67.4425 59.9636 65.3888 58.2974 62.3275 57.2124L46.7113 51.7874C43.65 50.7024 41.5963 49.0361 41.5963 44.3086C41.5963 39.9686 44.9675 36.4424 49.1138 36.4424H58.84C63.6063 36.4424 67.4425 40.4724 67.4425 45.4711" stroke="#418FF4" stroke-width="4.49744" stroke-linecap="round" stroke-linejoin="round"/>
<path id="Vector_2" d="M54.5001 31.2499V77.7499" stroke="#418FF4" stroke-width="4.49744" stroke-linecap="round" stroke-linejoin="round"/>
<path id="Dollar - Circle" d="M23.5 31.2501C18.6562 37.7214 15.75 45.7814 15.75 54.5001C15.75 75.8901 33.11 93.2501 54.5 93.2501C75.89 93.2501 93.25 75.8901 93.25 54.5001C93.25 33.1101 75.89 15.7501 54.5 15.7501C48.9588 15.7501 43.65 16.9126 38.8837 19.0439" stroke="#418FF4" stroke-width="4.49744" stroke-linecap="round" stroke-linejoin="round"/>
</g>
</g>
</svg>
